<?xml version="1.0" encoding="UTF-8"?>
<svg version="1.1" viewBox="0 0 1024 1024" width="1024" height="1024" xmlns="http://www.w3.org/2000/svg">
<path transform="translate(506,29)" d="m0 0 9 1 60 20 13 4 180 60 38 12 72 24 31 11v341l-2 28-7 49-6 26-11 39-12 33-11 25-6 14-8 16-21 36-5 7-1 3h-2l-2 5-10 15-14 19-7 9-5 5-3 4h-2v2h-2l-2 4-6 7-5 4-7 8-17 16-4 4-8 7-9 8-17 13-20 14-16 11-11 6-19 11-27 14-29 13-18 7-9 4-18 6-11 4-19 1-27-10-20-7-13-6-11-4-32-16-15-8-11-6-13-8-11-6-11-8-15-10-14-10-13-10v-2l-4-2-15-13-13-12-27-27-9-11-12-13-10-13-10-14-17-26-10-17-6-11-8-16-11-23-12-31-10-30-6-21-8-38-5-31-1-10-1-26v-342l8-3 29-10 16-5 30-10 8-2 36-12 23-7 17-6 17-5 24-8 23-7 21-7 40-13 20-6 26-9 13-4 27-9 12-3zm1 41-21 7-43 14-14 4-26 9-14 4-33 11-13 4-24 8-17 5-30 10-25 8-19 6-40 13-25 8-15 5-13 4-1 1v313l3 35 3 19 2 15 7 29 8 29 10 26 5 14 14 30 10 19 16 26 8 12 11 16h2l2 4 11 13 9 11 14 15 22 22 11 9 9 8 10 8 17 13 23 15 19 12 17 9 15 8 16 8 11 5 11 4 11 5 25 9 13 5h18l24-9 17-6 15-7 13-5 19-10 10-5 12-7 10-5 11-8 9-5 20-14 13-10 14-12 10-9 8-7 21-21 7-8 12-14 1-3h2l15-20 13-20 3-5v-2h2l7-12 7-14 6-10 11-23 4-9 5-13 8-20 11-35 3-11 4-20 5-26 4-31v-330l-8-4-17-5-57-19-16-5-31-11-17-5-29-10-13-4-26-9-13-4-29-10-9-2-31-11-13-4-54-18z" fill="#18A1F5"/>
<path transform="translate(519,378)" d="m0 0h39l24 4 22 6 18 6 27 13 15 10 9 5 14 10 12 9 3 2v2l5 2 5 5 13 12 8 7 9 9 7 8 12 14 1 3h2l13 19 12 19 12 23 9 20 6 15 3 9-1 7-3 10h-2l-10-29-9-22-8-16-8-14-16-24-10-13-7-9-5-5-2-4h-2l-3-3v-2h-2v-2l-4-2-4-4v-2h-2v-2l-6-3v-2h-2l-5-5-12-10-14-10-20-13-21-12-16-8-14-6-28-9-20-4-20-1h-16l-20 1-15 3-25 7-20 8-16 8-16 9-14 9-10 8-13 10-11 10-8 7-11 12-12 16-8 11-9 15-8 16-7 16-10 29-4 17-5 26-4 31-2 35v16l2 35 3 25v5l-5-4-12-16-3-26v-80l3-26 5-25 7-26 13-32 12-23 18-27 8-10 9-10 5-6h2l1-3h2v-2h2v-2l7-6 1-2h2v-2l11-9 13-10 17-11 9-5 14-8 16-7 18-7 25-7 20-4z" fill="#18A1F5"/>
<path transform="translate(543,482)" d="m0 0h23l28 3 20 5 20 8 19 9 11 7 3 1v2l5 2 13 10 14 12 20 20 11 14 10 13 11 16 11 19 12 23 9 21 7 18-1 5-5 9-2-3-7-20-6-14-7-15-8-15-11-19-12-18-7-8-8-10-18-20-12-11-10-8-7-5v-2l-5-2-15-9-23-11-20-7-14-3-18-3-14-1h-16l-22 2-21 4-23 8-25 12-14 10-13 10-12 11-7 7-10 13-10 14-10 18-8 20-6 19-4 20v54l4 26 6 28 5 20 8 23 8 22 6 12 7 16 5 9v2l-5-2-12-7-3-3-12-27-5-11-7-20-5-15-5-21-6-28-4-27-1-20v-40l2-18 6-28 8-21 12-20 11-12 10-10 14-10 8-5h2v-2l14-8 13-8 22-12 11-4 11-5 23-6z" fill="#18A1F5"/>
<path transform="translate(520,412)" d="m0 0h39l21 3 18 4 18 7 23 13 16 10 16 11 13 10 10 8 10 9 8 7v2h2v2l4 2 6 6v2h2l9 11 13 16 14 21 9 15 8 15 11 25 9 27 1 12h-6l-12-29-11-26-14-26-2-5h-2v-3h-2l-9-14-9-12-11-13-9-10-15-15-11-9-15-12-16-11-9-6-24-14-16-8-13-5-21-5-13-2-20-1-18 1-19 3-25 6-13 5-11 5-10 4-4 1v2l-12 7-12 8-13 10-6 6h-2v2l-8 7-2 3h-2l-2 4-9 10-13 18-10 16-8 16-8 17-8 26-5 20-4 33-2 33v20l2 33 4 34 7 30 4 16v2l-4-2-12-11-6-22-5-24-4-39-1-22v-13l2-33 4-33 6-27 8-28 6-15 10-19 7-11 10-14 9-11 9-10 16-16 11-9 16-12 13-8 20-11 20-8 15-5 31-6z" fill="#18A1F5"/>
<path transform="translate(498,273)" d="m0 0h16l29 2 23 4 24 5 37 12 18 8 21 9 19 10 11 6 14 8 18 11 19 13 14 10 16 13 5 4v2l4 2 12 12 2 1v2h2v2h2l7 8 5 4 9 11 9 12 1 2v17l-4-4-9-12-9-11-12-13-18-18-11-9-12-10-11-8-14-10-20-13-19-11-10-6-30-15-12-5-13-6-10-3-10-4-21-7-37-8-27-3h-33l-20 2-24 4-34 8-35 12-21 9-12 5-18 10-11 6-24 15-13 10-13 11-3 3h-2l-1 3-8 7-15 15-7 9-5 5-13 17-9 14-8 12-17 34h-1v-31l7-14 11-18h2l2-4 12-17 13-15 13-14 8-7 12-11 20-15 10-7 14-9 17-10 16-8 19-9 29-12 37-12 18-4 27-5 16-2z" fill="#18A1F5"/>
<path transform="translate(555,561)" d="m0 0h23l19 3 17 4 30 12 11 6 13 8 17 12 14 12 14 14 11 14 13 19 5 9 10 19 3 8 6 13 5 15-1 4-4 7h-2l-8-21-5-13-9-19-6-10-10-15-11-14-9-10-10-10-11-9-16-12-14-9-16-8-14-6-21-6-17-3-11-1h-10l-17 2-17 4-13 5-20 11-16 13-8 8-12 16-9 17-7 20-3 15v42l4 25 6 20 7 19 9 17 7 14 6 9 6 11 13 22 11 19 5 7v11l-5-1-4-3v-2l-3-1-7-10-15-22-7-11-8-14-9-16-5-10-10-23-5-16-6-22-3-14-2-25v-17l3-25 7-22 4-8 6-11 9-13 9-10 4-5 8-7 15-11 21-11 12-4 24-5z" fill="#18A1F5"/>
<path transform="translate(549,518)" d="m0 0h23l19 3 23 6 14 6 19 10 14 9 13 10 14 11 7 6 2 8-1 1h-8l-7-4-14-11-18-13-20-12-19-8-23-6-13-2h-32l-25 5-18 6-19 10-15 10-14 12-1 2h-2l-2 4-8 9-11 17-10 21-5 16-4 19-1 8v40l3 24 4 24 8 27 6 18 12 26 8 16 9 17 7 10 10 16 11 15 4 5v2l-10-3-9-4-4-4-10-15-13-21-5-9-12-22-11-27-3-8-8-24-5-19-6-37-2-24v-20l2-20 7-28 11-23 14-20 10-11 7-8 10-9 19-13 17-9 14-6 16-4 21-4z" fill="#18A1F5"/>
<path transform="translate(566,605)" d="m0 0 29 2 15 4 16 6 16 8 12 8 13 10 17 17 11 14 11 16 8 13 11 23 10 27 3 13v5l-6 7-2-2-8-28-10-24-8-16-8-13-10-13-11-13-16-16-15-11-9-6-23-11-9-3-24-4h-21l-20 4-16 7-14 10-10 9-7 8-3 5h-2l-2 5-8 19-4 16-1 8v13l3 22 8 28 6 14 9 17 11 17 11 15 10 16 14 20 12 20 5 7-1 4-7 3-4-1-6-10-6-9-14-22-12-17-19-29-7-11-8-16-8-18-7-25-3-16-1-8v-16l2-14 6-21 7-14 10-14 9-10 14-11 16-9 18-6 13-2z" fill="#18A1F5"/>
<path transform="translate(491,302)" d="m0 0h32l24 3 30 6 40 13 21 9 20 9 19 9 13 8 14 8 11 8 16 11 13 10 15 13 13 12 13 13 9 11 8 9 14 19 9 13 7 11 3 5v19h-2l-9-16-9-14-12-16-13-16-9-11-15-16-15-14-11-9-18-14-6-4v-2h-3v-2l-5-2-10-7-11-6-11-7-16-8-17-8-15-6-12-5-37-12-17-4-19-4-15-2-17-1h-11l-26 2-38 7-30 10-19 7-5 3h-8l-8-2 2-5 3-4 29-10 39-12 27-6 13-2z" fill="#18A1F5"/>
<path transform="translate(431,367)" d="m0 0 6 1 3 2-1 5-3 5-12 5-15 7-12 7-18 11-15 11-8 6-5 5-5 4-7 8h-2v2l-5 5h-2l-2 4-5 5-10 13-9 13-9 14-10 18-7 15-8 20-5 12-8 27-6 22-3 17-5 30-3 29-1 20-2 2-8-14-5-9 2-29 4-28 7-37 6-21 5-14 3-10 5-11 11-24 8-13 7-12 9-12 1-3h2l2-4 10-13 9-10 7-8 14-14 11-9 12-10 12-8 11-8 18-10 15-7 12-6z" fill="#18A1F5"/>
<path transform="translate(558,649)" d="m0 0h30l19 5 16 7 15 9 14 12 7 7 11 14 12 18 9 16 8 20 8 24 3 13v9l-7 6-5-19-3-13-11-28-8-16-3-5v-2h-2l-4-7-7-9-11-13-7-7-14-11-15-9-16-6-8-2h-29l-15 4-15 8-6 5-9 14-5 14-1 5v16l3 13 9 15 19 19 7 8 13 16 8 12 8 13 11 20 13 30 2 7-7 4h-3l-8-20-12-24-13-22-7-9-8-10-12-14-20-20-6-8-8-17-3-13v-21l5-16 6-11 9-10 7-6 13-8 18-6z" fill="#18A1F5"/>
<path transform="translate(425,160)" d="m0 0 48 1 26 3 36 7 21 5 27 9 17 6 13 6 18 8 25 13 15 9 11 7 10 7 16 11 12 9 11 9 10 9 12 11 8 7 29 29 7 8v2h2v2h2l9 11 10 12 14 19 1 2v16l-5-5-14-19-13-16-9-11-9-10-5-5v-2h-2l-6-7-7-6-6-7-8-6-6-7-11-9-13-11-15-11-16-11-2-1v-2l-4-2-28-17-7-4-28-15-26-12-19-7-21-7-39-9-26-4-45-2h-14l-30 1-6-3-1-5 15-5z" fill="#18A1F5"/>
<path transform="translate(447,227)" d="m0 0h42l21 1 23 4 23 6 24 8 8 5 1 1v5l-4 1h-10l-30-9-26-6-27-3-15-1h-29l-24 2-18 2-28 7-29 9-27 12-19 9-12 7-22 13-7 5h-2v2l-11 7-18 14-13 11-13 12-9 9-7 8-9 11h-1v-20l9-10 14-14 6-5 4-5 5-2v-2l11-9 20-15 17-11 13-8 17-10 23-11 26-10 17-6 32-8 32-5z" fill="#18A1F5"/>
<path transform="translate(439,193)" d="m0 0h20l23 1 25 3 28 5 25 7 23 8 29 13 18 10 10 6 12 8 9 5 22 15 14 10 18 13 11 8 15 12 12 9 4 6 2 7-13-2-5-3v-2l-4-2-18-13-11-8-19-14-13-10-30-20-14-9-11-6-9-5-12-6-22-10-15-5-25-8-34-6-30-3h-49l-22 2-40 7-18 5h-6l-5-7v-3l35-10 30-5 20-2z" fill="#18A1F5"/>
<path transform="translate(534,348)" d="m0 0h22l26 2 18 4 15 4 21 7 14 7 17 8 15 9 15 10 13 10 14 11 14 12 7 7 8 7 7 7 7 8 9 10 12 16 14 19 9 16 8 13 11 22 1 4-3 15h-2l-8-18-12-23-15-24-10-14-8-10-13-15-11-12-13-13-8-7-15-12v-2l-4-2-18-13-13-8-15-10-16-8-15-7-33-11-9-2-24-3-15-1h-19l-23 2-23 3-4 1h-7l-5-6v-4l24-5 11-2z" fill="#18A1F5"/>
<path transform="translate(409,348)" d="m0 0h15l1 1v7l-7 3-12 4-11 5-17 8-15 9-16 11-9 8-11 9-21 21-6 8h-2v2l-5 5-13 18-13 21-9 16-11 21-10 23-7 20-6 20-5 25-5 30-2 17-3-4-7-21 5-30 4-20 5-18 10-30 8-18 10-21 5-9 11-18 7-11h2l2-5 10-13 11-13 7-8 11-12 10-9 13-11 17-12 14-9 15-8 17-8z" fill="#18A1F5"/>
<path transform="translate(561,689)" d="m0 0h16l16 4 13 7 11 8 15 15 11 15 8 13 12 23 6 15 9 29 2 12-8 6-2-6-4-16-7-20-5-11-7-14-10-18-11-16-5-5v-2h-2l-7-8-6-4v-2l-5-2-12-6-7-2-8-1h-10l-8 4-7 6-1 2v6l6 8 21 13 10 8 9 8 7 8 11 15 13 23 4 8 4 11 9 24 1 10-5 4-3-1-9-26-16-32-2-6h-2l-8-14-9-11-11-11-31-20-6-5-6-9-1-3v-13l6-9 8-7 9-4z" fill="#18A1F5"/>
<path transform="translate(427,256)" d="m0 0 9 1 6 3-6 7-4 2-19 4-29 8-16 5-13 5-15 6-23 11-12 6-21 13-17 12h-2v2l-11 8-11 9-12 11-17 17-9 11-10 12-6 8-9 14h-1v-25l9-12 11-13 5-5 10-11h2v-2l5-4 1-2h2l2-4 10-9 20-15 10-7 11-7h2v-2l28-15 31-15 17-6 16-6 16-5 30-8z" fill="#18A1F5"/>
<path transform="translate(314,371)" d="m0 0h3v7l-3 6-9 9-6 5-7 8-8 8-9 11-9 10-14 19-11 18-10 17-14 29-8 21-6 21-3 8-7-6-3-3 1-7 6-20 10-24 8-18 13-24 11-17 14-19 12-14 9-11 31-31z" fill="#18A1F5"/>
<path transform="translate(353,180)" d="m0 0 7 1 4 2-2 6-4 3-36 11-34 14-32 16-20 12-30 20-4 4-22 18h-1v-17l11-10 19-14 21-14 14-8 15-9 18-8 10-5 14-5 16-6 16-5z" fill="#18A1F5"/>
<path transform="translate(525,445)" d="m0 0h50l19 3 4 2 4 5v4l-3 2-14-1-27-2h-21l-26 2-22 6-19 7-16 8-11 6-21 12-7 3h-9l3-10 9-7 11-7 10-6 21-10 19-7 23-6 15-3z" fill="#18A1F5"/>
<path transform="translate(295,229)" d="m0 0h7l2 1-1 8-6 5-18 10-15 8-11 8-7 4-14 10-14 11-3 1v2l-8 7-12 11-15 15h-1v-20l9-9 11-9 9-8 24-18h2v-2l32-20 22-12z" fill="#18A1F5"/>
<path transform="translate(708,219)" d="m0 0 7 1 18 13 11 8v2h3v2h2v2l4 2 16 13 11 9 14 13 8 7 23 23 7 8 3 4v16l-5-5-16-17-9-10-10-10-8-7-13-12-11-9-10-8v-2l-4-2-19-14-19-13-9-6 4-7z" fill="#18A1F5"/>
<path transform="translate(732,202)" d="m0 0 9 2 25 9 14 12 11 9 8 7v2l4 2 8 8 8 7 16 16v13l-4-2-17-17-2-1v-2h-2v-2l-4-2-4-5-11-9-10-9-14-11-16-12-14-10z" fill="#18A1F5"/>
<path transform="translate(510,129)" d="m0 0 9 2 16 5 72 24 40 13 5 3 4 7v3h-11l-25-12-31-13-17-6-19-7-13-3-21-6-20-5 1-2z" fill="#18A1F5"/>
<path transform="translate(494,326)" d="m0 0 5 2 4 4-5 6-18 5-16 3-6-1-4-4 4-6 7-3z" fill="#18A1F5"/>
<path transform="translate(189,560)" d="m0 0 2 1v2l4 2 4 4-1 10-4 23h-2l-6-25v-7z" fill="#18A1F5"/>
<path transform="translate(192,231)" d="m0 0h2l-1 3-11 8-3 1v-7z" fill="#18A1F5"/>
<path transform="translate(824,232)" d="m0 0 11 4v7l-8-6-3-3z" fill="#18A1F5"/>
<path transform="translate(195,230)" d="m0 0" fill="#18A1F5"/>
<path transform="translate(731,201)" d="m0 0" fill="#18A1F5"/>
</svg>
